<?xml version="1.0" encoding="UTF-8" standalone="no"?>
<svg
   height="256"
   preserveAspectRatio="xMidYMid"
   viewBox="0 0 256 256"
   width="256"
   version="1.1"
   id="svg3"
   sodipodi:docname="hybrid_logo.svg"
   xml:space="preserve"
   inkscape:version="1.4 (e7c3feb1, 2024-10-09)"
   xmlns:inkscape="http://www.inkscape.org/namespaces/inkscape"
   xmlns:sodipodi="http://sodipodi.sourceforge.net/DTD/sodipodi-0.dtd"
   xmlns:xlink="http://www.w3.org/1999/xlink"
   xmlns="http://www.w3.org/2000/svg"
   xmlns:svg="http://www.w3.org/2000/svg"><defs
     id="defs3"><clipPath
       id="SVGID_00000057147530462942974460000010007246700100245144_">
						<use
   xlink:href="#SVGID_00000008842467830618037370000008599518321374635408_"
   style="overflow:visible"
   id="use874" />
					</clipPath><clipPath
       id="SVGID_00000088840900149426178860000015118778273418972563_">
						<use
   xlink:href="#SVGID_00000179607145473903529810000013091984332890745502_"
   style="overflow:visible"
   id="use890" />
					</clipPath><clipPath
       id="SVGID_00000017501047973730273970000001125208051604579516_">
						<use
   xlink:href="#SVGID_00000007422837548470256490000008061668285239485569_"
   style="overflow:visible"
   id="use914" />
					</clipPath><rect
       id="SVGID_00000008842467830618037370000008599518321374635408_"
       x="132.39999"
       y="91.599998"
       width="480"
       height="476.5" /><rect
       id="SVGID_00000179607145473903529810000013091984332890745502_"
       x="132.39999"
       y="91.599998"
       width="480"
       height="476.5" /><rect
       id="SVGID_00000007422837548470256490000008061668285239485569_"
       x="132.39999"
       y="91.599998"
       width="480"
       height="476.5" /><clipPath
       clipPathUnits="userSpaceOnUse"
       id="clipPath16"><path
         d="M 0,1024 H 1024 V 0 H 0 Z"
         transform="translate(-594.99712,-584.07032)"
         id="path16" /></clipPath><clipPath
       clipPathUnits="userSpaceOnUse"
       id="clipPath18"><path
         d="M 0,1024 H 1024 V 0 H 0 Z"
         transform="translate(-674.06152,-618.72951)"
         id="path18" /></clipPath><clipPath
       clipPathUnits="userSpaceOnUse"
       id="clipPath20"><path
         d="M 0,1024 H 1024 V 0 H 0 Z"
         transform="translate(-105.936,-692.12841)"
         id="path20" /></clipPath><clipPath
       clipPathUnits="userSpaceOnUse"
       id="clipPath22"><path
         d="M 0,1024 H 1024 V 0 H 0 Z"
         transform="translate(-141.3477,-650.07081)"
         id="path22" /></clipPath><clipPath
       clipPathUnits="userSpaceOnUse"
       id="clipPath24"><path
         d="M 0,1024 H 1024 V 0 H 0 Z"
         transform="translate(-131.8374,-676.68702)"
         id="path24" /></clipPath><clipPath
       clipPathUnits="userSpaceOnUse"
       id="clipPath26"><path
         d="M 0,1024 H 1024 V 0 H 0 Z"
         transform="translate(-105.936,-692.12841)"
         id="path26" /></clipPath><clipPath
       clipPathUnits="userSpaceOnUse"
       id="clipPath28"><path
         d="M 0,1024 H 1024 V 0 H 0 Z"
         transform="translate(-168.2803,-695.03762)"
         id="path28" /></clipPath><clipPath
       clipPathUnits="userSpaceOnUse"
       id="clipPath30"><path
         d="M 0,1024 H 1024 V 0 H 0 Z"
         transform="translate(-182.8242,-658.67432)"
         id="path30" /></clipPath><clipPath
       clipPathUnits="userSpaceOnUse"
       id="clipPath32"><path
         d="M 0,1024 H 1024 V 0 H 0 Z"
         transform="translate(-198.1294,-694.75442)"
         id="path32" /></clipPath><clipPath
       clipPathUnits="userSpaceOnUse"
       id="clipPath34"><path
         d="M 0,1024 H 1024 V 0 H 0 Z"
         transform="translate(-156.1855,-626.58012)"
         id="path34" /></clipPath><clipPath
       clipPathUnits="userSpaceOnUse"
       id="clipPath36"><path
         d="M 0,1024 H 1024 V 0 H 0 Z"
         transform="translate(-156.1855,-626.58012)"
         id="path36" /></clipPath><clipPath
       clipPathUnits="userSpaceOnUse"
       id="clipPath38"><path
         d="M 0,1024 H 1024 V 0 H 0 Z"
         transform="translate(-172.81791,-598.17431)"
         id="path38" /></clipPath><clipPath
       clipPathUnits="userSpaceOnUse"
       id="clipPath40"><path
         d="M 0,1024 H 1024 V 0 H 0 Z"
         transform="translate(-241.03861,-678.99662)"
         id="path40" /></clipPath><clipPath
       clipPathUnits="userSpaceOnUse"
       id="clipPath42"><path
         d="M 0,1024 H 1024 V 0 H 0 Z"
         transform="translate(-172.81791,-598.17431)"
         id="path42" /></clipPath><clipPath
       clipPathUnits="userSpaceOnUse"
       id="clipPath44"><path
         d="M 0,1024 H 1024 V 0 H 0 Z"
         transform="translate(-270.9658,-648.53421)"
         id="path44" /></clipPath><clipPath
       clipPathUnits="userSpaceOnUse"
       id="clipPath46"><path
         d="M 0,1024 H 1024 V 0 H 0 Z"
         transform="translate(-285.9175,-604.50831)"
         id="path46" /></clipPath><clipPath
       clipPathUnits="userSpaceOnUse"
       id="clipPath48"><path
         d="M 0,1024 H 1024 V 0 H 0 Z"
         transform="translate(-262.7056,-553.88231)"
         id="path48" /></clipPath><clipPath
       clipPathUnits="userSpaceOnUse"
       id="clipPath50"><path
         d="M 0,1024 H 1024 V 0 H 0 Z"
         transform="translate(-207.79051,-557.93361)"
         id="path50" /></clipPath><clipPath
       clipPathUnits="userSpaceOnUse"
       id="clipPath52"><path
         d="M 0,1024 H 1024 V 0 H 0 Z"
         transform="translate(-172.81791,-598.17431)"
         id="path52" /></clipPath><clipPath
       clipPathUnits="userSpaceOnUse"
       id="clipPath54"><path
         d="M 0,1024 H 1024 V 0 H 0 Z"
         transform="translate(-320.33011,-503.92682)"
         id="path54" /></clipPath><clipPath
       clipPathUnits="userSpaceOnUse"
       id="clipPath56"><path
         d="M 0,1024 H 1024 V 0 H 0 Z"
         transform="translate(-293.55031,-475.97461)"
         id="path56" /></clipPath><clipPath
       clipPathUnits="userSpaceOnUse"
       id="clipPath58"><path
         d="M 0,1024 H 1024 V 0 H 0 Z"
         transform="translate(-368.98341,-529.94681)"
         id="path58" /></clipPath><clipPath
       clipPathUnits="userSpaceOnUse"
       id="clipPath60"><path
         d="M 0,1024 H 1024 V 0 H 0 Z"
         transform="translate(-314.66891,-441.61331)"
         id="path60" /></clipPath><clipPath
       clipPathUnits="userSpaceOnUse"
       id="clipPath62"><path
         d="M 0,1024 H 1024 V 0 H 0 Z"
         transform="translate(-338.31301,-488.94631)"
         id="path62" /></clipPath><clipPath
       clipPathUnits="userSpaceOnUse"
       id="clipPath64"><path
         d="M 0,1024 H 1024 V 0 H 0 Z"
         transform="translate(-368.98341,-529.94681)"
         id="path64" /></clipPath><clipPath
       clipPathUnits="userSpaceOnUse"
       id="clipPath66"><path
         d="M 0,1024 H 1024 V 0 H 0 Z"
         transform="translate(-359.93211,-463.43651)"
         id="path66" /></clipPath><clipPath
       clipPathUnits="userSpaceOnUse"
       id="clipPath68"><path
         d="M 0,1024 H 1024 V 0 H 0 Z"
         transform="translate(-368.98341,-529.94681)"
         id="path68" /></clipPath><clipPath
       clipPathUnits="userSpaceOnUse"
       id="clipPath70"><path
         d="M 0,1024 H 1024 V 0 H 0 Z"
         transform="translate(-392.94921,-480.75391)"
         id="path70" /></clipPath><clipPath
       clipPathUnits="userSpaceOnUse"
       id="clipPath72"><path
         d="M 0,1024 H 1024 V 0 H 0 Z"
         transform="translate(-394.48881,-452.78711)"
         id="path72" /></clipPath><clipPath
       clipPathUnits="userSpaceOnUse"
       id="clipPath74"><path
         d="M 0,1024 H 1024 V 0 H 0 Z"
         transform="translate(-338.31301,-488.94631)"
         id="path74" /></clipPath><clipPath
       clipPathUnits="userSpaceOnUse"
       id="clipPath76"><path
         d="M 0,1024 H 1024 V 0 H 0 Z"
         transform="translate(-314.66891,-441.61331)"
         id="path76" /></clipPath><clipPath
       clipPathUnits="userSpaceOnUse"
       id="clipPath78"><path
         d="M 0,1024 H 1024 V 0 H 0 Z"
         transform="translate(-359.13131,-420.84081)"
         id="path78" /></clipPath><clipPath
       clipPathUnits="userSpaceOnUse"
       id="clipPath80"><path
         d="M 0,1024 H 1024 V 0 H 0 Z"
         transform="translate(-359.93211,-463.43651)"
         id="path80" /></clipPath><clipPath
       clipPathUnits="userSpaceOnUse"
       id="clipPath82"><path
         d="M 0,1024 H 1024 V 0 H 0 Z"
         transform="translate(-394.48881,-452.78711)"
         id="path82" /></clipPath><clipPath
       clipPathUnits="userSpaceOnUse"
       id="clipPath84"><path
         d="M 0,1024 H 1024 V 0 H 0 Z"
         transform="translate(-391.10211,-432.80961)"
         id="path84" /></clipPath><clipPath
       clipPathUnits="userSpaceOnUse"
       id="clipPath86"><path
         d="M 0,1024 H 1024 V 0 H 0 Z"
         transform="translate(-380.41551,-415.25781)"
         id="path86" /></clipPath><clipPath
       clipPathUnits="userSpaceOnUse"
       id="clipPath88"><path
         d="M 0,1024 H 1024 V 0 H 0 Z"
         transform="translate(-391.10211,-432.80961)"
         id="path88" /></clipPath><clipPath
       clipPathUnits="userSpaceOnUse"
       id="clipPath90"><path
         d="M 0,1024 H 1024 V 0 H 0 Z"
         transform="translate(-395.77441,-402.10351)"
         id="path90" /></clipPath><clipPath
       clipPathUnits="userSpaceOnUse"
       id="clipPath92"><path
         d="M 0,1024 H 1024 V 0 H 0 Z"
         transform="translate(-425.42041,-656.07231)"
         id="path92" /></clipPath><clipPath
       clipPathUnits="userSpaceOnUse"
       id="clipPath94"><path
         d="M 0,1024 H 1024 V 0 H 0 Z"
         transform="translate(-370.92381,-673.08351)"
         id="path94" /></clipPath><clipPath
       clipPathUnits="userSpaceOnUse"
       id="clipPath96"><path
         d="M 0,1024 H 1024 V 0 H 0 Z"
         transform="translate(-353.99171,-738.55472)"
         id="path96" /></clipPath><clipPath
       clipPathUnits="userSpaceOnUse"
       id="clipPath98"><path
         d="M 0,1024 H 1024 V 0 H 0 Z"
         transform="translate(-426.59231,-694.72562)"
         id="path98" /></clipPath><clipPath
       clipPathUnits="userSpaceOnUse"
       id="clipPath100"><path
         d="M 0,1024 H 1024 V 0 H 0 Z"
         transform="translate(-496.09671,-716.42192)"
         id="path100" /></clipPath><clipPath
       clipPathUnits="userSpaceOnUse"
       id="clipPath102"><path
         d="M 0,1024 H 1024 V 0 H 0 Z"
         transform="translate(-425.42041,-656.07231)"
         id="path102" /></clipPath><clipPath
       clipPathUnits="userSpaceOnUse"
       id="clipPath104"><path
         d="M 0,1024 H 1024 V 0 H 0 Z"
         transform="translate(-482.22311,-770.03612)"
         id="path104" /></clipPath><clipPath
       clipPathUnits="userSpaceOnUse"
       id="clipPath106"><path
         d="M 0,1024 H 1024 V 0 H 0 Z"
         transform="translate(-423.45651,-738.13822)"
         id="path106" /></clipPath><clipPath
       clipPathUnits="userSpaceOnUse"
       id="clipPath108"><path
         d="M 0,1024 H 1024 V 0 H 0 Z"
         transform="translate(-353.99171,-738.55472)"
         id="path108" /></clipPath><clipPath
       clipPathUnits="userSpaceOnUse"
       id="clipPath110"><path
         d="M 0,1024 H 1024 V 0 H 0 Z"
         transform="translate(-416.74411,-775.95652)"
         id="path110" /></clipPath><clipPath
       clipPathUnits="userSpaceOnUse"
       id="clipPath112"><path
         d="M 0,1024 H 1024 V 0 H 0 Z"
         transform="translate(-356.71191,-788.84672)"
         id="path112" /></clipPath><clipPath
       clipPathUnits="userSpaceOnUse"
       id="clipPath114"><path
         d="M 0,1024 H 1024 V 0 H 0 Z"
         transform="translate(-482.22311,-770.03612)"
         id="path114" /></clipPath><clipPath
       clipPathUnits="userSpaceOnUse"
       id="clipPath116"><path
         d="M 0,1024 H 1024 V 0 H 0 Z"
         transform="translate(-452.59671,-819.21092)"
         id="path116" /></clipPath><clipPath
       clipPathUnits="userSpaceOnUse"
       id="clipPath118"><path
         d="M 0,1024 H 1024 V 0 H 0 Z"
         transform="translate(-356.71191,-788.84672)"
         id="path118" /></clipPath><clipPath
       clipPathUnits="userSpaceOnUse"
       id="clipPath120"><path
         d="M 0,1024 H 1024 V 0 H 0 Z"
         transform="translate(-405.47951,-822.02782)"
         id="path120" /></clipPath><clipPath
       clipPathUnits="userSpaceOnUse"
       id="clipPath122"><path
         d="M 0,1024 H 1024 V 0 H 0 Z"
         transform="translate(-429.93461,-841.64112)"
         id="path122" /></clipPath><clipPath
       clipPathUnits="userSpaceOnUse"
       id="clipPath124"><path
         d="M 0,1024 H 1024 V 0 H 0 Z"
         transform="translate(-405.47951,-822.02782)"
         id="path124" /></clipPath><clipPath
       clipPathUnits="userSpaceOnUse"
       id="clipPath126"><path
         d="M 0,1024 H 1024 V 0 H 0 Z"
         transform="translate(-390.32811,-885.36182)"
         id="path126" /></clipPath><clipPath
       clipPathUnits="userSpaceOnUse"
       id="clipPath128"><path
         d="M 0,1024 H 1024 V 0 H 0 Z"
         transform="translate(-429.93461,-841.64112)"
         id="path128" /></clipPath><clipPath
       clipPathUnits="userSpaceOnUse"
       id="clipPath130"><path
         d="M 0,1024 H 1024 V 0 H 0 Z"
         transform="translate(-381.89791,-845.77292)"
         id="path130" /></clipPath><clipPath
       clipPathUnits="userSpaceOnUse"
       id="clipPath132"><path
         d="M 0,1024 H 1024 V 0 H 0 Z"
         transform="translate(-390.32811,-885.36182)"
         id="path132" /></clipPath><clipPath
       clipPathUnits="userSpaceOnUse"
       id="clipPath134"><path
         d="M 0,1024 H 1024 V 0 H 0 Z"
         transform="translate(-198.1294,-694.75442)"
         id="path134" /></clipPath><clipPath
       clipPathUnits="userSpaceOnUse"
       id="clipPath136"><path
         d="M 0,1024 H 1024 V 0 H 0 Z"
         transform="translate(-241.0396,-679.00052)"
         id="path136" /></clipPath><clipPath
       clipPathUnits="userSpaceOnUse"
       id="clipPath138"><path
         d="M 0,1024 H 1024 V 0 H 0 Z"
         transform="translate(-441.72661,-580.62701)"
         id="path138" /></clipPath><clipPath
       clipPathUnits="userSpaceOnUse"
       id="clipPath140"><path
         d="M 0,1024 H 1024 V 0 H 0 Z"
         transform="translate(-493.00631,-580.18551)"
         id="path140" /></clipPath><clipPath
       clipPathUnits="userSpaceOnUse"
       id="clipPath142"><path
         d="M 0,1024 H 1024 V 0 H 0 Z"
         transform="translate(-394.56791,-540.24611)"
         id="path142" /></clipPath><clipPath
       clipPathUnits="userSpaceOnUse"
       id="clipPath144"><path
         d="M 0,1024 H 1024 V 0 H 0 Z"
         transform="translate(-507.63871,-553.97951)"
         id="path144" /></clipPath><clipPath
       clipPathUnits="userSpaceOnUse"
       id="clipPath146"><path
         d="M 0,1024 H 1024 V 0 H 0 Z"
         transform="translate(-447.78961,-556.95851)"
         id="path146" /></clipPath><clipPath
       clipPathUnits="userSpaceOnUse"
       id="clipPath148"><path
         d="M 0,1024 H 1024 V 0 H 0 Z"
         transform="translate(-507.63871,-553.97951)"
         id="path148" /></clipPath><clipPath
       clipPathUnits="userSpaceOnUse"
       id="clipPath150"><path
         d="M 0,1024 H 1024 V 0 H 0 Z"
         transform="translate(-523.27051,-509.55371)"
         id="path150" /></clipPath><clipPath
       clipPathUnits="userSpaceOnUse"
       id="clipPath152"><path
         d="M 0,1024 H 1024 V 0 H 0 Z"
         transform="translate(-459.89361,-515.81931)"
         id="path152" /></clipPath><clipPath
       clipPathUnits="userSpaceOnUse"
       id="clipPath154"><path
         d="M 0,1024 H 1024 V 0 H 0 Z"
         transform="translate(-394.56791,-540.24611)"
         id="path154" /></clipPath><clipPath
       clipPathUnits="userSpaceOnUse"
       id="clipPath156"><path
         d="M 0,1024 H 1024 V 0 H 0 Z"
         transform="translate(-401.33011,-492.26561)"
         id="path156" /></clipPath><clipPath
       clipPathUnits="userSpaceOnUse"
       id="clipPath158"><path
         d="M 0,1024 H 1024 V 0 H 0 Z"
         transform="translate(-432.45311,-462.09771)"
         id="path158" /></clipPath><clipPath
       clipPathUnits="userSpaceOnUse"
       id="clipPath160"><path
         d="M 0,1024 H 1024 V 0 H 0 Z"
         transform="translate(-519.04981,-473.01951)"
         id="path160" /></clipPath><clipPath
       clipPathUnits="userSpaceOnUse"
       id="clipPath162"><path
         d="M 0,1024 H 1024 V 0 H 0 Z"
         transform="translate(-502.04201,-435.29101)"
         id="path162" /></clipPath><clipPath
       clipPathUnits="userSpaceOnUse"
       id="clipPath164"><path
         d="M 0,1024 H 1024 V 0 H 0 Z"
         transform="translate(-459.89361,-515.81931)"
         id="path164" /></clipPath><clipPath
       clipPathUnits="userSpaceOnUse"
       id="clipPath166"><path
         d="M 0,1024 H 1024 V 0 H 0 Z"
         transform="translate(-432.45311,-462.09771)"
         id="path166" /></clipPath><clipPath
       clipPathUnits="userSpaceOnUse"
       id="clipPath168"><path
         d="M 0,1024 H 1024 V 0 H 0 Z"
         transform="translate(-460.34621,-441.73051)"
         id="path168" /></clipPath><clipPath
       clipPathUnits="userSpaceOnUse"
       id="clipPath170"><path
         d="M 0,1024 H 1024 V 0 H 0 Z"
         transform="translate(-502.04201,-435.29101)"
         id="path170" /></clipPath><clipPath
       clipPathUnits="userSpaceOnUse"
       id="clipPath172"><path
         d="M 0,1024 H 1024 V 0 H 0 Z"
         transform="translate(-479.64551,-472.56741)"
         id="path172" /></clipPath><clipPath
       clipPathUnits="userSpaceOnUse"
       id="clipPath174"><path
         d="M 0,1024 H 1024 V 0 H 0 Z"
         transform="translate(-460.34621,-441.73051)"
         id="path174" /></clipPath><clipPath
       clipPathUnits="userSpaceOnUse"
       id="clipPath176"><path
         d="M 0,1024 H 1024 V 0 H 0 Z"
         transform="translate(-519.04981,-473.01951)"
         id="path176" /></clipPath><clipPath
       clipPathUnits="userSpaceOnUse"
       id="clipPath178"><path
         d="M 0,1024 H 1024 V 0 H 0 Z"
         transform="translate(-593.41601,-650.05221)"
         id="path178" /></clipPath><clipPath
       clipPathUnits="userSpaceOnUse"
       id="clipPath180"><path
         d="M 0,1024 H 1024 V 0 H 0 Z"
         transform="translate(-624.37502,-615.05961)"
         id="path180" /></clipPath><clipPath
       clipPathUnits="userSpaceOnUse"
       id="clipPath182"><path
         d="M 0,1024 H 1024 V 0 H 0 Z"
         transform="translate(-654.98632,-661.19481)"
         id="path182" /></clipPath><clipPath
       clipPathUnits="userSpaceOnUse"
       id="clipPath184"><path
         d="M 0,1024 H 1024 V 0 H 0 Z"
         transform="translate(-597.79201,-685.96292)"
         id="path184" /></clipPath><clipPath
       clipPathUnits="userSpaceOnUse"
       id="clipPath186"><path
         d="M 0,1024 H 1024 V 0 H 0 Z"
         transform="translate(-593.41601,-650.05221)"
         id="path186" /></clipPath><clipPath
       clipPathUnits="userSpaceOnUse"
       id="clipPath188"><path
         d="M 0,1024 H 1024 V 0 H 0 Z"
         transform="translate(-671.05571,-717.70022)"
         id="path188" /></clipPath><clipPath
       clipPathUnits="userSpaceOnUse"
       id="clipPath190"><path
         d="M 0,1024 H 1024 V 0 H 0 Z"
         transform="translate(-593.41601,-650.05221)"
         id="path190" /></clipPath><clipPath
       clipPathUnits="userSpaceOnUse"
       id="clipPath192"><path
         d="M 0,1024 H 1024 V 0 H 0 Z"
         transform="translate(-534.21292,-761.35692)"
         id="path192" /></clipPath><clipPath
       clipPathUnits="userSpaceOnUse"
       id="clipPath194"><path
         d="M 0,1024 H 1024 V 0 H 0 Z"
         transform="translate(-602.89061,-719.87602)"
         id="path194" /></clipPath><clipPath
       clipPathUnits="userSpaceOnUse"
       id="clipPath196"><path
         d="M 0,1024 H 1024 V 0 H 0 Z"
         transform="translate(-671.05571,-717.70022)"
         id="path196" /></clipPath><clipPath
       clipPathUnits="userSpaceOnUse"
       id="clipPath198"><path
         d="M 0,1024 H 1024 V 0 H 0 Z"
         transform="translate(-664.29002,-774.59132)"
         id="path198" /></clipPath><clipPath
       clipPathUnits="userSpaceOnUse"
       id="clipPath200"><path
         d="M 0,1024 H 1024 V 0 H 0 Z"
         transform="translate(-607.15331,-759.94192)"
         id="path200" /></clipPath><clipPath
       clipPathUnits="userSpaceOnUse"
       id="clipPath202"><path
         d="M 0,1024 H 1024 V 0 H 0 Z"
         transform="translate(-664.29002,-774.59132)"
         id="path202" /></clipPath><clipPath
       clipPathUnits="userSpaceOnUse"
       id="clipPath204"><path
         d="M 0,1024 H 1024 V 0 H 0 Z"
         transform="translate(-609.16502,-793.71682)"
         id="path204" /></clipPath><clipPath
       clipPathUnits="userSpaceOnUse"
       id="clipPath206"><path
         d="M 0,1024 H 1024 V 0 H 0 Z"
         transform="translate(-534.21292,-761.35692)"
         id="path206" /></clipPath><clipPath
       clipPathUnits="userSpaceOnUse"
       id="clipPath208"><path
         d="M 0,1024 H 1024 V 0 H 0 Z"
         transform="translate(-609.16502,-793.71682)"
         id="path208" /></clipPath><clipPath
       clipPathUnits="userSpaceOnUse"
       id="clipPath210"><path
         d="M 0,1024 H 1024 V 0 H 0 Z"
         transform="translate(-644.66111,-811.97512)"
         id="path210" /></clipPath><clipPath
       clipPathUnits="userSpaceOnUse"
       id="clipPath212"><path
         d="M 0,1024 H 1024 V 0 H 0 Z"
         transform="translate(-560.04001,-809.13282)"
         id="path212" /></clipPath><clipPath
       clipPathUnits="userSpaceOnUse"
       id="clipPath214"><path
         d="M 0,1024 H 1024 V 0 H 0 Z"
         transform="translate(-644.66111,-811.97512)"
         id="path214" /></clipPath><clipPath
       clipPathUnits="userSpaceOnUse"
       id="clipPath216"><path
         d="M 0,1024 H 1024 V 0 H 0 Z"
         transform="translate(-609.16502,-793.71682)"
         id="path216" /></clipPath><clipPath
       clipPathUnits="userSpaceOnUse"
       id="clipPath218"><path
         d="M 0,1024 H 1024 V 0 H 0 Z"
         transform="translate(-593.03521,-837.71682)"
         id="path218" /></clipPath><clipPath
       clipPathUnits="userSpaceOnUse"
       id="clipPath220"><path
         d="M 0,1024 H 1024 V 0 H 0 Z"
         transform="translate(-624.23242,-871.72902)"
         id="path220" /></clipPath><clipPath
       clipPathUnits="userSpaceOnUse"
       id="clipPath222"><path
         d="M 0,1024 H 1024 V 0 H 0 Z"
         transform="translate(-593.03521,-837.71682)"
         id="path222" /></clipPath><clipPath
       clipPathUnits="userSpaceOnUse"
       id="clipPath224"><path
         d="M 0,1024 H 1024 V 0 H 0 Z"
         transform="translate(-610.58302,-558.40431)"
         id="path224" /></clipPath><clipPath
       clipPathUnits="userSpaceOnUse"
       id="clipPath226"><path
         d="M 0,1024 H 1024 V 0 H 0 Z"
         transform="translate(-578.70611,-547.47902)"
         id="path226" /></clipPath><clipPath
       clipPathUnits="userSpaceOnUse"
       id="clipPath228"><path
         d="M 0,1024 H 1024 V 0 H 0 Z"
         transform="translate(-581.96681,-494.19431)"
         id="path228" /></clipPath><clipPath
       clipPathUnits="userSpaceOnUse"
       id="clipPath230"><path
         d="M 0,1024 H 1024 V 0 H 0 Z"
         transform="translate(-628.88092,-534.12891)"
         id="path230" /></clipPath><clipPath
       clipPathUnits="userSpaceOnUse"
       id="clipPath232"><path
         d="M 0,1024 H 1024 V 0 H 0 Z"
         transform="translate(-663.76462,-578.90141)"
         id="path232" /></clipPath><clipPath
       clipPathUnits="userSpaceOnUse"
       id="clipPath234"><path
         d="M 0,1024 H 1024 V 0 H 0 Z"
         transform="translate(-647.35252,-509.90921)"
         id="path234" /></clipPath><clipPath
       clipPathUnits="userSpaceOnUse"
       id="clipPath236"><path
         d="M 0,1024 H 1024 V 0 H 0 Z"
         transform="translate(-719.42972,-529.51322)"
         id="path236" /></clipPath><clipPath
       clipPathUnits="userSpaceOnUse"
       id="clipPath238"><path
         d="M 0,1024 H 1024 V 0 H 0 Z"
         transform="translate(-581.96681,-494.19431)"
         id="path238" /></clipPath><clipPath
       clipPathUnits="userSpaceOnUse"
       id="clipPath240"><path
         d="M 0,1024 H 1024 V 0 H 0 Z"
         transform="translate(-667.43752,-487.50291)"
         id="path240" /></clipPath><clipPath
       clipPathUnits="userSpaceOnUse"
       id="clipPath242"><path
         d="M 0,1024 H 1024 V 0 H 0 Z"
         transform="translate(-611.90822,-438.85841)"
         id="path242" /></clipPath><clipPath
       clipPathUnits="userSpaceOnUse"
       id="clipPath244"><path
         d="M 0,1024 H 1024 V 0 H 0 Z"
         transform="translate(-719.42972,-529.51322)"
         id="path244" /></clipPath><clipPath
       clipPathUnits="userSpaceOnUse"
       id="clipPath246"><path
         d="M 0,1024 H 1024 V 0 H 0 Z"
         transform="translate(-688.17092,-461.40531)"
         id="path246" /></clipPath><clipPath
       clipPathUnits="userSpaceOnUse"
       id="clipPath248"><path
         d="M 0,1024 H 1024 V 0 H 0 Z"
         transform="translate(-741.09472,-489.04591)"
         id="path248" /></clipPath><clipPath
       clipPathUnits="userSpaceOnUse"
       id="clipPath250"><path
         d="M 0,1024 H 1024 V 0 H 0 Z"
         transform="translate(-611.90822,-438.85841)"
         id="path250" /></clipPath><clipPath
       clipPathUnits="userSpaceOnUse"
       id="clipPath252"><path
         d="M 0,1024 H 1024 V 0 H 0 Z"
         transform="translate(-688.17092,-461.40531)"
         id="path252" /></clipPath><clipPath
       clipPathUnits="userSpaceOnUse"
       id="clipPath254"><path
         d="M 0,1024 H 1024 V 0 H 0 Z"
         transform="translate(-705.82622,-393.07421)"
         id="path254" /></clipPath><clipPath
       clipPathUnits="userSpaceOnUse"
       id="clipPath256"><path
         d="M 0,1024 H 1024 V 0 H 0 Z"
         transform="translate(-756.00489,-452.08891)"
         id="path256" /></clipPath><clipPath
       clipPathUnits="userSpaceOnUse"
       id="clipPath258"><path
         d="M 0,1024 H 1024 V 0 H 0 Z"
         transform="translate(-705.82622,-393.07421)"
         id="path258" /></clipPath><clipPath
       clipPathUnits="userSpaceOnUse"
       id="clipPath260"><path
         d="M 0,1024 H 1024 V 0 H 0 Z"
         transform="translate(-756.00489,-452.08891)"
         id="path260" /></clipPath><clipPath
       clipPathUnits="userSpaceOnUse"
       id="clipPath262"><path
         d="M 0,1024 H 1024 V 0 H 0 Z"
         transform="translate(-758.83689,-420.34771)"
         id="path262" /></clipPath><clipPath
       clipPathUnits="userSpaceOnUse"
       id="clipPath264"><path
         d="M 0,1024 H 1024 V 0 H 0 Z"
         transform="translate(-743.90532,-401.35941)"
         id="path264" /></clipPath><clipPath
       clipPathUnits="userSpaceOnUse"
       id="clipPath266"><path
         d="M 0,1024 H 1024 V 0 H 0 Z"
         transform="translate(-758.83689,-420.34771)"
         id="path266" /></clipPath><clipPath
       clipPathUnits="userSpaceOnUse"
       id="clipPath268"><path
         d="M 0,1024 H 1024 V 0 H 0 Z"
         transform="translate(-705.82622,-393.07421)"
         id="path268" /></clipPath><clipPath
       clipPathUnits="userSpaceOnUse"
       id="clipPath270"><path
         d="M 0,1024 H 1024 V 0 H 0 Z"
         transform="translate(-743.90532,-401.35941)"
         id="path270" /></clipPath><clipPath
       clipPathUnits="userSpaceOnUse"
       id="clipPath272"><path
         d="M 0,1024 H 1024 V 0 H 0 Z"
         transform="translate(-758.83689,-420.34771)"
         id="path272" /></clipPath><clipPath
       clipPathUnits="userSpaceOnUse"
       id="clipPath274"><path
         d="M 0,1024 H 1024 V 0 H 0 Z"
         transform="translate(-713.18362,-638.87352)"
         id="path274" /></clipPath><clipPath
       clipPathUnits="userSpaceOnUse"
       id="clipPath276"><path
         d="M 0,1024 H 1024 V 0 H 0 Z"
         transform="translate(-733.81742,-644.99072)"
         id="path276" /></clipPath><clipPath
       clipPathUnits="userSpaceOnUse"
       id="clipPath278"><path
         d="M 0,1024 H 1024 V 0 H 0 Z"
         transform="translate(-735.82912,-576.16701)"
         id="path278" /></clipPath><clipPath
       clipPathUnits="userSpaceOnUse"
       id="clipPath280"><path
         d="M 0,1024 H 1024 V 0 H 0 Z"
         transform="translate(-733.81742,-644.99072)"
         id="path280" /></clipPath><clipPath
       clipPathUnits="userSpaceOnUse"
       id="clipPath282"><path
         d="M 0,1024 H 1024 V 0 H 0 Z"
         transform="translate(-778.89452,-572.42481)"
         id="path282" /></clipPath><clipPath
       clipPathUnits="userSpaceOnUse"
       id="clipPath284"><path
         d="M 0,1024 H 1024 V 0 H 0 Z"
         transform="translate(-817.5088,-592.30712)"
         id="path284" /></clipPath><clipPath
       clipPathUnits="userSpaceOnUse"
       id="clipPath286"><path
         d="M 0,1024 H 1024 V 0 H 0 Z"
         transform="translate(-742.04102,-743.87262)"
         id="path286" /></clipPath><clipPath
       clipPathUnits="userSpaceOnUse"
       id="clipPath288"><path
         d="M 0,1024 H 1024 V 0 H 0 Z"
         transform="translate(-777.61232,-669.79352)"
         id="path288" /></clipPath><clipPath
       clipPathUnits="userSpaceOnUse"
       id="clipPath290"><path
         d="M 0,1024 H 1024 V 0 H 0 Z"
         transform="translate(-817.5088,-592.30712)"
         id="path290" /></clipPath><clipPath
       clipPathUnits="userSpaceOnUse"
       id="clipPath292"><path
         d="M 0,1024 H 1024 V 0 H 0 Z"
         transform="translate(-849.4297,-641.41892)"
         id="path292" /></clipPath><clipPath
       clipPathUnits="userSpaceOnUse"
       id="clipPath294"><path
         d="M 0,1024 H 1024 V 0 H 0 Z"
         transform="translate(-822.53912,-700.81252)"
         id="path294" /></clipPath><clipPath
       clipPathUnits="userSpaceOnUse"
       id="clipPath296"><path
         d="M 0,1024 H 1024 V 0 H 0 Z"
         transform="translate(-787.64064,-749.80812)"
         id="path296" /></clipPath><clipPath
       clipPathUnits="userSpaceOnUse"
       id="clipPath298"><path
         d="M 0,1024 H 1024 V 0 H 0 Z"
         transform="translate(-822.53912,-700.81252)"
         id="path298" /></clipPath><clipPath
       clipPathUnits="userSpaceOnUse"
       id="clipPath300"><path
         d="M 0,1024 H 1024 V 0 H 0 Z"
         transform="translate(-810.5107,-753.21142)"
         id="path300" /></clipPath><clipPath
       clipPathUnits="userSpaceOnUse"
       id="clipPath302"><path
         d="M 0,1024 H 1024 V 0 H 0 Z"
         transform="translate(-855.70705,-752.82032)"
         id="path302" /></clipPath><clipPath
       clipPathUnits="userSpaceOnUse"
       id="clipPath304"><path
         d="M 0,1024 H 1024 V 0 H 0 Z"
         transform="translate(-858.43555,-723.80222)"
         id="path304" /></clipPath><clipPath
       clipPathUnits="userSpaceOnUse"
       id="clipPath306"><path
         d="M 0,1024 H 1024 V 0 H 0 Z"
         transform="translate(-849.4297,-641.41892)"
         id="path306" /></clipPath><clipPath
       clipPathUnits="userSpaceOnUse"
       id="clipPath308"><path
         d="M 0,1024 H 1024 V 0 H 0 Z"
         transform="translate(-886.18165,-733.58152)"
         id="path308" /></clipPath><clipPath
       clipPathUnits="userSpaceOnUse"
       id="clipPath310"><path
         d="M 0,1024 H 1024 V 0 H 0 Z"
         transform="translate(-902.61332,-769.08402)"
         id="path310" /></clipPath><clipPath
       clipPathUnits="userSpaceOnUse"
       id="clipPath312"><path
         d="M 0,1024 H 1024 V 0 H 0 Z"
         transform="translate(-855.70705,-752.82032)"
         id="path312" /></clipPath><clipPath
       clipPathUnits="userSpaceOnUse"
       id="clipPath314"><path
         d="M 0,1024 H 1024 V 0 H 0 Z"
         transform="translate(-359.13131,-420.84081)"
         id="path314" /></clipPath><clipPath
       clipPathUnits="userSpaceOnUse"
       id="clipPath93"><path
         d="m 207.03999,357.44 h 77.44002 v 76.79999 h -77.44002 z"
         transform="matrix(0.01291322,0,0,0.01302083,-2.6735535,-4.6541663)"
         clip-rule="evenodd"
         id="path93-5" /></clipPath><clipPath
       clipPathUnits="userSpaceOnUse"
       id="clipPath91"><path
         d="m 207.03999,251.84 h 77.44002 v 76.80001 h -77.44002 z"
         transform="matrix(0.01291322,0,0,0.01302083,-2.6735535,-3.2791667)"
         clip-rule="evenodd"
         id="path91-5" /></clipPath></defs><sodipodi:namedview
     id="namedview3"
     pagecolor="#ffffff"
     bordercolor="#000000"
     borderopacity="0.25"
     inkscape:showpageshadow="2"
     inkscape:pageopacity="0.0"
     inkscape:pagecheckerboard="0"
     inkscape:deskcolor="#d1d1d1"
     inkscape:zoom="1.8922705"
     inkscape:cx="189.98341"
     inkscape:cy="51.789636"
     inkscape:window-width="1728"
     inkscape:window-height="1051"
     inkscape:window-x="1590"
     inkscape:window-y="1478"
     inkscape:window-maximized="0"
     inkscape:current-layer="svg3" /><linearGradient
     id="a"
     x1="50%"
     x2="50%"
     y1="0%"
     y2="100%"><stop
       offset="0"
       stop-color="#17c9fb"
       id="stop1"
       style="stop-color:#e8f6f6;stop-opacity:1;" /><stop
       offset="1"
       stop-color="#1a74e8"
       id="stop2"
       style="stop-color:#45bfb0;stop-opacity:1;" /></linearGradient><path
     d="m56.0638473 0h143.8723057c30.963208 0 56.063847 25.1006394 56.063847 56.0638473v143.8723057c0 30.963208-25.100639 56.063847-56.063847 56.063847h-143.8723057c-30.9632079 0-56.0638473-25.100639-56.0638473-56.063847v-143.8723057c0-30.9632079 25.1006394-56.0638473 56.0638473-56.0638473z"
     fill="url(#a)"
     id="path2" /></svg>
